<mxfile host="app.diagrams.net" modified="2024-01-07T22:22:10.998Z" agent="Mozilla/5.0 (Windows NT 10.0; Win64; x64) AppleWebKit/537.36 (KHTML, like Gecko) Chrome/120.0.0.0 Safari/537.36" etag="YVB9M1fJTtlUHUJbO-Rk" version="22.1.16" type="device">
  <diagram name="Seite-1" id="0_i8fS6ghsBtIKUpe-p-">
    <mxGraphModel dx="1562" dy="818" grid="1" gridSize="10" guides="1" tooltips="1" connect="1" arrows="1" fold="1" page="1" pageScale="1" pageWidth="827" pageHeight="1169" math="1" shadow="0">
      <root>
        <mxCell id="0" />
        <mxCell id="1" parent="0" />
        <mxCell id="BV2-qr5xhl1f-mz8nN31-1" value="" style="endArrow=classic;html=1;rounded=0;strokeWidth=2;" edge="1" parent="1">
          <mxGeometry width="50" height="50" relative="1" as="geometry">
            <mxPoint x="144" y="260" as="sourcePoint" />
            <mxPoint x="154" y="120" as="targetPoint" />
          </mxGeometry>
        </mxCell>
        <mxCell id="BV2-qr5xhl1f-mz8nN31-3" value="$$\textbf{X}$$" style="text;html=1;strokeColor=none;fillColor=none;align=center;verticalAlign=middle;whiteSpace=wrap;rounded=0;" vertex="1" parent="1">
          <mxGeometry x="194" y="176" width="30" height="20" as="geometry" />
        </mxCell>
        <mxCell id="BV2-qr5xhl1f-mz8nN31-6" value="" style="endArrow=none;html=1;rounded=0;strokeWidth=2;fillColor=#f8cecc;strokeColor=#F72C0C;" edge="1" parent="1">
          <mxGeometry width="50" height="50" relative="1" as="geometry">
            <mxPoint x="140" y="310" as="sourcePoint" />
            <mxPoint x="144" y="260" as="targetPoint" />
          </mxGeometry>
        </mxCell>
        <mxCell id="BV2-qr5xhl1f-mz8nN31-8" value="" style="endArrow=none;html=1;rounded=0;strokeWidth=2;fillColor=#d5e8d4;strokeColor=#53F502;" edge="1" parent="1">
          <mxGeometry width="50" height="50" relative="1" as="geometry">
            <mxPoint x="154" y="120" as="sourcePoint" />
            <mxPoint x="158" y="70" as="targetPoint" />
          </mxGeometry>
        </mxCell>
        <mxCell id="BV2-qr5xhl1f-mz8nN31-9" value="" style="endArrow=none;html=1;rounded=0;" edge="1" parent="1">
          <mxGeometry width="50" height="50" relative="1" as="geometry">
            <mxPoint x="150" y="190" as="sourcePoint" />
            <mxPoint x="201" y="193" as="targetPoint" />
          </mxGeometry>
        </mxCell>
        <mxCell id="BV2-qr5xhl1f-mz8nN31-10" value="" style="ellipse;whiteSpace=wrap;html=1;aspect=fixed;fillColor=#330000;" vertex="1" parent="1">
          <mxGeometry x="199" y="191" width="4" height="4" as="geometry" />
        </mxCell>
        <mxCell id="BV2-qr5xhl1f-mz8nN31-11" value="" style="endArrow=classic;html=1;rounded=0;strokeWidth=2;" edge="1" parent="1">
          <mxGeometry width="50" height="50" relative="1" as="geometry">
            <mxPoint x="410" y="250" as="sourcePoint" />
            <mxPoint x="344" y="123" as="targetPoint" />
          </mxGeometry>
        </mxCell>
        <mxCell id="BV2-qr5xhl1f-mz8nN31-12" value="$$\textbf{X&#39;}$$" style="text;html=1;strokeColor=none;fillColor=none;align=center;verticalAlign=middle;whiteSpace=wrap;rounded=0;" vertex="1" parent="1">
          <mxGeometry x="315" y="178" width="30" height="20" as="geometry" />
        </mxCell>
        <mxCell id="BV2-qr5xhl1f-mz8nN31-13" value="" style="endArrow=none;html=1;rounded=0;strokeWidth=2;fillColor=#f8cecc;strokeColor=#F72C0C;" edge="1" parent="1">
          <mxGeometry width="50" height="50" relative="1" as="geometry">
            <mxPoint x="436" y="300" as="sourcePoint" />
            <mxPoint x="410" y="250" as="targetPoint" />
          </mxGeometry>
        </mxCell>
        <mxCell id="BV2-qr5xhl1f-mz8nN31-14" value="" style="endArrow=none;html=1;rounded=0;strokeWidth=2;fillColor=#d5e8d4;strokeColor=#53F502;" edge="1" parent="1">
          <mxGeometry width="50" height="50" relative="1" as="geometry">
            <mxPoint x="344" y="123" as="sourcePoint" />
            <mxPoint x="328" y="93" as="targetPoint" />
          </mxGeometry>
        </mxCell>
        <mxCell id="BV2-qr5xhl1f-mz8nN31-15" value="" style="endArrow=none;html=1;rounded=0;" edge="1" parent="1">
          <mxGeometry width="50" height="50" relative="1" as="geometry">
            <mxPoint x="339" y="193" as="sourcePoint" />
            <mxPoint x="371" y="176" as="targetPoint" />
          </mxGeometry>
        </mxCell>
        <mxCell id="BV2-qr5xhl1f-mz8nN31-16" value="" style="ellipse;whiteSpace=wrap;html=1;aspect=fixed;fillColor=#330000;" vertex="1" parent="1">
          <mxGeometry x="337" y="191" width="4" height="4" as="geometry" />
        </mxCell>
        <mxCell id="BV2-qr5xhl1f-mz8nN31-24" value="" style="curved=1;endArrow=classic;html=1;rounded=0;exitX=0.75;exitY=0;exitDx=0;exitDy=0;entryX=0;entryY=0;entryDx=0;entryDy=0;" edge="1" parent="1" source="BV2-qr5xhl1f-mz8nN31-3" target="BV2-qr5xhl1f-mz8nN31-12">
          <mxGeometry width="50" height="50" relative="1" as="geometry">
            <mxPoint x="250" y="210" as="sourcePoint" />
            <mxPoint x="300" y="160" as="targetPoint" />
            <Array as="points">
              <mxPoint x="240" y="150" />
              <mxPoint x="270" y="150" />
            </Array>
          </mxGeometry>
        </mxCell>
        <mxCell id="BV2-qr5xhl1f-mz8nN31-25" value="$$v$$" style="text;html=1;align=center;verticalAlign=middle;resizable=0;points=[];autosize=1;strokeColor=none;fillColor=none;" vertex="1" parent="1">
          <mxGeometry x="150" y="166" width="60" height="30" as="geometry" />
        </mxCell>
        <mxCell id="BV2-qr5xhl1f-mz8nN31-26" value="$$v$$" style="text;html=1;align=center;verticalAlign=middle;resizable=0;points=[];autosize=1;strokeColor=none;fillColor=none;" vertex="1" parent="1">
          <mxGeometry x="320" y="161" width="60" height="30" as="geometry" />
        </mxCell>
        <mxCell id="BV2-qr5xhl1f-mz8nN31-27" value="$$u$$" style="text;html=1;align=center;verticalAlign=middle;resizable=0;points=[];autosize=1;strokeColor=none;fillColor=none;" vertex="1" parent="1">
          <mxGeometry x="370" y="195" width="60" height="30" as="geometry" />
        </mxCell>
        <mxCell id="BV2-qr5xhl1f-mz8nN31-28" value="$$u$$" style="text;html=1;align=center;verticalAlign=middle;resizable=0;points=[];autosize=1;strokeColor=none;fillColor=none;" vertex="1" parent="1">
          <mxGeometry x="130" y="220" width="60" height="30" as="geometry" />
        </mxCell>
      </root>
    </mxGraphModel>
  </diagram>
</mxfile>
